<svg xmlns="http://www.w3.org/2000/svg" xmlns:xlink="http://www.w3.org/1999/xlink" contentStyleType="text/css" data-diagram-type="ACTIVITY" height="1200px" preserveAspectRatio="none" style="width:1674px;height:1200px;background:#FFFFFF;" version="1.1" viewBox="0 0 1674 1200" width="1674px" zoomAndPan="magnify"><?plantuml 1.2026.4beta2?><defs/><g><g class="title" data-source-line="13"><text fill="#000000" font-family="sans-serif" font-size="14" font-weight="700" lengthAdjust="spacing" textLength="434.2188" x="619.2268" y="32.9951">AI Privacy Policy Analyzer - Extension Activity Diagram</text></g><ellipse cx="830.3362" cy="62.2969" fill="#2E4053" rx="10" ry="10" style="stroke:#222222;stroke-width:1;"/><path d="M928.3401,89.1484 L928.3401,105.2813 L908.3401,109.2813 L928.3401,113.2813 L928.3401,129.4141 A0,0 0 0 0 928.3401,129.4141 L1113.5793,129.4141 A0,0 0 0 0 1113.5793,129.4141 L1113.5793,99.1484 L1103.5793,89.1484 L928.3401,89.1484 A0,0 0 0 0 928.3401,89.1484" fill="#FEFFDD" style="stroke:#181818;stroke-width:0.5;"/><path d="M1103.5793,89.1484 L1103.5793,99.1484 L1113.5793,99.1484 L1103.5793,89.1484" fill="#FEFFDD" style="stroke:#181818;stroke-width:0.5;"/><text fill="#000000" font-family="sans-serif" font-size="13" lengthAdjust="spacing" textLength="160.1895" x="934.3401" y="106.2153">Triggered when the user</text><text fill="#000000" font-family="sans-serif" font-size="13" lengthAdjust="spacing" textLength="164.2393" x="934.3401" y="121.3481">clicks the extension icon.</text><rect fill="#EBF5FB" height="33.9688" rx="12.5" ry="12.5" style="stroke:#1A5276;stroke-width:0.5;" width="156.0078" x="752.3323" y="92.2969"/><text fill="#1F618D" font-family="sans-serif" font-size="12" lengthAdjust="spacing" textLength="136.0078" x="762.3323" y="113.4355">Open Extension Popup</text><rect fill="#2E4053" height="6" rx="2.5" ry="2.5" style="stroke:#2E4053;stroke-width:1;" width="1638.6724" x="16" y="149.4141"/><rect fill="#EBF5FB" height="33.9688" rx="12.5" ry="12.5" style="stroke:#1A5276;stroke-width:0.5;" width="167.2402" x="191.2813" y="285.8359"/><text fill="#1F618D" font-family="sans-serif" font-size="12" lengthAdjust="spacing" textLength="147.2402" x="201.2813" y="306.9746">Get Current Tab Domain</text><polygon fill="#EBF5FB" points="159.9346,342.9531,389.8682,342.9531,401.8682,354.9531,389.8682,366.9531,159.9346,366.9531,147.9346,354.9531,159.9346,342.9531" style="stroke:#1A5276;stroke-width:0.5;"/><text fill="#1F618D" font-family="sans-serif" font-size="12" lengthAdjust="spacing" textLength="229.9336" x="159.9346" y="359.1074">Analysis exists in local storage cache?</text><text fill="#2E4053" font-family="sans-serif" font-size="10" lengthAdjust="spacing" textLength="17.4707" x="130.4639" y="352.5947">Yes</text><text fill="#2E4053" font-family="sans-serif" font-size="10" lengthAdjust="spacing" textLength="13.5986" x="401.8682" y="352.5947">No</text><rect fill="#EBF5FB" height="33.9688" rx="12.5" ry="12.5" style="stroke:#1A5276;stroke-width:0.5;" width="219.8691" x="28" y="376.9531"/><text fill="#1F618D" font-family="sans-serif" font-size="12" lengthAdjust="spacing" textLength="199.8691" x="38" y="398.0918">Load and Display Cached Results</text><rect fill="#EBF5FB" height="33.9688" rx="12.5" ry="12.5" style="stroke:#1A5276;stroke-width:0.5;" width="188.1523" x="317.792" y="376.9531"/><text fill="#1F618D" font-family="sans-serif" font-size="12" lengthAdjust="spacing" textLength="168.1523" x="327.792" y="398.0918">Do Nothing / Keep UI Empty</text><polygon fill="#EBF5FB" points="274.9014,416.9219,286.9014,428.9219,274.9014,440.9219,262.9014,428.9219,274.9014,416.9219" style="stroke:#1A5276;stroke-width:0.5;"/><path d="M543.9443,280.2031 L543.9443,320.4688 A0,0 0 0 0 543.9443,320.4688 L877.0903,320.4688 A0,0 0 0 0 877.0903,320.4688 L877.0903,304.3359 L897.0903,300.3359 L877.0903,296.3359 L877.0903,290.2031 L867.0903,280.2031 L543.9443,280.2031 A0,0 0 0 0 543.9443,280.2031" fill="#FEFFDD" style="stroke:#181818;stroke-width:0.5;"/><path d="M867.0903,280.2031 L867.0903,290.2031 L877.0903,290.2031 L867.0903,280.2031" fill="#FEFFDD" style="stroke:#181818;stroke-width:0.5;"/><text fill="#000000" font-family="sans-serif" font-size="13" lengthAdjust="spacing" textLength="281.6836" x="549.9443" y="297.27">Downloads Llama 3.2 model in background</text><text fill="#000000" font-family="sans-serif" font-size="13" lengthAdjust="spacing" textLength="312.146" x="549.9443" y="312.4028">if first run, otherwise loads from browser cache.</text><rect fill="#EBF5FB" height="33.9688" rx="12.5" ry="12.5" style="stroke:#1A5276;stroke-width:0.5;" width="229.6191" x="897.0903" y="283.3516"/><text fill="#1F618D" font-family="sans-serif" font-size="12" lengthAdjust="spacing" textLength="209.6191" x="907.0903" y="304.4902">Initialize Local AI Engine (WebLLM)</text><rect fill="#EBF5FB" height="33.9688" rx="12.5" ry="12.5" style="stroke:#1A5276;stroke-width:0.5;" width="173.4746" x="925.1626" y="343.6172"/><text fill="#1F618D" font-family="sans-serif" font-size="12" lengthAdjust="spacing" textLength="153.4746" x="935.1626" y="364.7559">Report Load Progress (%)</text><rect fill="#EBF5FB" height="33.9688" rx="12.5" ry="12.5" style="stroke:#1A5276;stroke-width:0.5;" width="176.9434" x="923.4282" y="412.5859"/><text fill="#1F618D" font-family="sans-serif" font-size="12" lengthAdjust="spacing" textLength="156.9434" x="933.4282" y="433.7246">Set Local AI Engine Ready</text><path d="M1404.7476,179.832 L1404.7476,188.3984 L1384.7476,192.3984 L1404.7476,196.3984 L1404.7476,204.9648 A0,0 0 0 0 1404.7476,204.9648 L1642.6724,204.9648 A0,0 0 0 0 1642.6724,204.9648 L1642.6724,189.832 L1632.6724,179.832 L1404.7476,179.832 A0,0 0 0 0 1404.7476,179.832" fill="#FEFFDD" style="stroke:#181818;stroke-width:0.5;"/><path d="M1632.6724,179.832 L1632.6724,189.832 L1642.6724,189.832 L1632.6724,179.832" fill="#FEFFDD" style="stroke:#181818;stroke-width:0.5;"/><text fill="#000000" font-family="sans-serif" font-size="13" lengthAdjust="spacing" textLength="216.9248" x="1410.7476" y="196.8989">Sends message to Content Script</text><rect fill="#EBF5FB" height="33.9688" rx="12.5" ry="12.5" style="stroke:#1A5276;stroke-width:0.5;" width="160.0801" x="1224.6675" y="175.4141"/><text fill="#1F618D" font-family="sans-serif" font-size="12" lengthAdjust="spacing" textLength="140.0801" x="1234.6675" y="196.5527">Find Privacy Policy Link</text><rect fill="#EBF5FB" height="33.9688" rx="12.5" ry="12.5" style="stroke:#1A5276;stroke-width:0.5;" width="243.9922" x="1182.7114" y="229.3828"/><text fill="#1F618D" font-family="sans-serif" font-size="12" lengthAdjust="spacing" textLength="223.9922" x="1192.7114" y="250.5215">Content Script scans HTML &lt;a&gt; links</text><rect fill="#EBF5FB" height="33.9688" rx="12.5" ry="12.5" style="stroke:#1A5276;stroke-width:0.5;" width="282.793" x="1163.311" y="283.3516"/><text fill="#1F618D" font-family="sans-serif" font-size="12" lengthAdjust="spacing" textLength="262.793" x="1173.311" y="304.4902">Match and Rank URLs using Regex Patterns</text><rect fill="#EBF5FB" height="33.9688" rx="12.5" ry="12.5" style="stroke:#1A5276;stroke-width:0.5;" width="223.4199" x="1192.9976" y="340.4688"/><text fill="#1F618D" font-family="sans-serif" font-size="12" lengthAdjust="spacing" textLength="203.4199" x="1202.9976" y="361.6074">Return Highest Priority Policy URL</text><rect fill="#EBF5FB" height="33.9688" rx="12.5" ry="12.5" style="stroke:#1A5276;stroke-width:0.5;" width="192.0137" x="1208.7007" y="409.4375"/><text fill="#1F618D" font-family="sans-serif" font-size="12" lengthAdjust="spacing" textLength="172.0137" x="1218.7007" y="430.5762">Fetch HTML of Privacy Policy</text><rect fill="#EBF5FB" height="33.9688" rx="12.5" ry="12.5" style="stroke:#1A5276;stroke-width:0.5;" width="299.9961" x="1154.7095" y="466.5547"/><text fill="#1F618D" font-family="sans-serif" font-size="12" lengthAdjust="spacing" textLength="279.9961" x="1164.7095" y="487.6934">Parse Text Content (from &lt;main&gt; or &lt;body&gt;)</text><rect fill="#EBF5FB" height="33.9688" rx="12.5" ry="12.5" style="stroke:#1A5276;stroke-width:0.5;" width="250.2383" x="1179.5884" y="520.5234"/><text fill="#1F618D" font-family="sans-serif" font-size="12" lengthAdjust="spacing" textLength="230.2383" x="1189.5884" y="541.6621">Store Extracted Policy Text in Memory</text><polygon fill="#EBF5FB" points="830.3362,564.4922,842.3362,576.4922,830.3362,588.4922,818.3362,576.4922,830.3362,564.4922" style="stroke:#1A5276;stroke-width:0.5;"/><rect fill="#EBF5FB" height="33.9688" rx="12.5" ry="12.5" style="stroke:#1A5276;stroke-width:0.5;" width="197.8672" x="731.4026" y="608.4922"/><text fill="#1F618D" font-family="sans-serif" font-size="12" lengthAdjust="spacing" textLength="177.8672" x="741.4026" y="629.6309">Enable 'Start Analysis' Button</text><polygon fill="#EBF5FB" points="754.7151,662.4609,905.9573,662.4609,917.9573,674.4609,905.9573,686.4609,754.7151,686.4609,742.7151,674.4609,754.7151,662.4609" style="stroke:#1A5276;stroke-width:0.5;"/><text fill="#1F618D" font-family="sans-serif" font-size="12" lengthAdjust="spacing" textLength="151.2422" x="754.7151" y="678.6152">User selects model type?</text><text fill="#2E4053" font-family="sans-serif" font-size="10" lengthAdjust="spacing" textLength="59.2969" x="683.4182" y="672.1025">Local Model</text><text fill="#2E4053" font-family="sans-serif" font-size="10" lengthAdjust="spacing" textLength="75" x="917.9573" y="672.1025">Cloud ChatGPT</text><rect fill="#EBF5FB" height="33.9688" rx="12.5" ry="12.5" style="stroke:#1A5276;stroke-width:0.5;" width="177.1191" x="571.5422" y="696.4609"/><text fill="#1F618D" font-family="sans-serif" font-size="12" lengthAdjust="spacing" textLength="157.1191" x="581.5422" y="717.5996">Wait for Start Button Click</text><rect fill="#EBF5FB" height="33.9688" rx="12.5" ry="12.5" style="stroke:#1A5276;stroke-width:0.5;" width="320.4688" x="499.8674" y="750.4297"/><text fill="#1F618D" font-family="sans-serif" font-size="12" lengthAdjust="spacing" textLength="300.4688" x="509.8674" y="771.5684">Construct Prompt with Policy Text &amp; Format Rules</text><rect fill="#EBF5FB" height="33.9688" rx="12.5" ry="12.5" style="stroke:#1A5276;stroke-width:0.5;" width="257.2227" x="531.4905" y="804.3984"/><text fill="#1F618D" font-family="sans-serif" font-size="12" lengthAdjust="spacing" textLength="237.2227" x="541.4905" y="825.5371">Initialize Streaming via WebLLM Engine</text><rect fill="#EBF5FB" height="33.9688" rx="12.5" ry="12.5" style="stroke:#1A5276;stroke-width:0.5;" width="222.4063" x="548.8987" y="858.3672"/><text fill="#1F618D" font-family="sans-serif" font-size="12" lengthAdjust="spacing" textLength="202.4063" x="558.8987" y="879.5059">Stream Results to UI in Real-Time</text><rect fill="#EBF5FB" height="33.9688" rx="12.5" ry="12.5" style="stroke:#1A5276;stroke-width:0.5;" width="302.1992" x="849.4709" y="696.4609"/><text fill="#1F618D" font-family="sans-serif" font-size="12" lengthAdjust="spacing" textLength="282.1992" x="859.4709" y="717.5996">User Enters OpenAI API Key &amp; Custom Settings</text><rect fill="#EBF5FB" height="33.9688" rx="12.5" ry="12.5" style="stroke:#1A5276;stroke-width:0.5;" width="156.3887" x="922.3762" y="750.4297"/><text fill="#1F618D" font-family="sans-serif" font-size="12" lengthAdjust="spacing" textLength="136.3887" x="932.3762" y="771.5684">Initialize OpenAI Client</text><rect fill="#EBF5FB" height="33.9688" rx="12.5" ry="12.5" style="stroke:#1A5276;stroke-width:0.5;" width="177.1191" x="912.011" y="804.3984"/><text fill="#1F618D" font-family="sans-serif" font-size="12" lengthAdjust="spacing" textLength="157.1191" x="922.011" y="825.5371">Wait for Start Button Click</text><rect fill="#EBF5FB" height="33.9688" rx="12.5" ry="12.5" style="stroke:#1A5276;stroke-width:0.5;" width="320.4688" x="840.3362" y="858.3672"/><text fill="#1F618D" font-family="sans-serif" font-size="12" lengthAdjust="spacing" textLength="300.4688" x="850.3362" y="879.5059">Construct Prompt with Policy Text &amp; Format Rules</text><rect fill="#EBF5FB" height="33.9688" rx="12.5" ry="12.5" style="stroke:#1A5276;stroke-width:0.5;" width="228.2891" x="886.426" y="912.3359"/><text fill="#1F618D" font-family="sans-serif" font-size="12" lengthAdjust="spacing" textLength="208.2891" x="896.426" y="933.4746">Initialize Streaming via OpenAI API</text><rect fill="#EBF5FB" height="33.9688" rx="12.5" ry="12.5" style="stroke:#1A5276;stroke-width:0.5;" width="222.4063" x="889.3674" y="966.3047"/><text fill="#1F618D" font-family="sans-serif" font-size="12" lengthAdjust="spacing" textLength="202.4063" x="899.3674" y="987.4434">Stream Results to UI in Real-Time</text><polygon fill="#EBF5FB" points="830.3362,1006.2734,842.3362,1018.2734,830.3362,1030.2734,818.3362,1018.2734,830.3362,1006.2734" style="stroke:#1A5276;stroke-width:0.5;"/><rect fill="#EBF5FB" height="33.9688" rx="12.5" ry="12.5" style="stroke:#1A5276;stroke-width:0.5;" width="372.2363" x="644.218" y="1050.2734"/><text fill="#1F618D" font-family="sans-serif" font-size="12" lengthAdjust="spacing" textLength="352.2363" x="654.218" y="1071.4121">Save Final Analysis to Chrome Storage Cache (by Domain)</text><rect fill="#EBF5FB" height="33.9688" rx="12.5" ry="12.5" style="stroke:#1A5276;stroke-width:0.5;" width="232.2266" x="714.2229" y="1104.2422"/><text fill="#1F618D" font-family="sans-serif" font-size="12" lengthAdjust="spacing" textLength="212.2266" x="724.2229" y="1125.3809">Display "Analysis Complete" Status</text><ellipse cx="830.3362" cy="1169.2109" fill="none" rx="11" ry="11" style="stroke:#222222;stroke-width:1;"/><ellipse cx="830.3362" cy="1169.2109" fill="#222222" rx="6" ry="6" style="stroke:#222222;stroke-width:1;"/><line style="stroke:#2E4053;stroke-width:1;" x1="830.3362" x2="830.3362" y1="72.2969" y2="92.2969"/><polygon fill="#2E4053" points="826.3362,82.2969,830.3362,92.2969,834.3362,82.2969,830.3362,86.2969" style="stroke:#2E4053;stroke-width:1;"/><line style="stroke:#2E4053;stroke-width:1;" x1="147.9346" x2="137.9346" y1="354.9531" y2="354.9531"/><line style="stroke:#2E4053;stroke-width:1;" x1="137.9346" x2="137.9346" y1="354.9531" y2="376.9531"/><polygon fill="#2E4053" points="133.9346,366.9531,137.9346,376.9531,141.9346,366.9531,137.9346,370.9531" style="stroke:#2E4053;stroke-width:1;"/><line style="stroke:#2E4053;stroke-width:1;" x1="401.8682" x2="411.8682" y1="354.9531" y2="354.9531"/><line style="stroke:#2E4053;stroke-width:1;" x1="411.8682" x2="411.8682" y1="354.9531" y2="376.9531"/><polygon fill="#2E4053" points="407.8682,366.9531,411.8682,376.9531,415.8682,366.9531,411.8682,370.9531" style="stroke:#2E4053;stroke-width:1;"/><line style="stroke:#2E4053;stroke-width:1;" x1="137.9346" x2="137.9346" y1="410.9219" y2="428.9219"/><line style="stroke:#2E4053;stroke-width:1;" x1="137.9346" x2="262.9014" y1="428.9219" y2="428.9219"/><polygon fill="#2E4053" points="252.9014,424.9219,262.9014,428.9219,252.9014,432.9219,256.9014,428.9219" style="stroke:#2E4053;stroke-width:1;"/><line style="stroke:#2E4053;stroke-width:1;" x1="411.8682" x2="411.8682" y1="410.9219" y2="428.9219"/><line style="stroke:#2E4053;stroke-width:1;" x1="411.8682" x2="286.9014" y1="428.9219" y2="428.9219"/><polygon fill="#2E4053" points="296.9014,424.9219,286.9014,428.9219,296.9014,432.9219,292.9014,428.9219" style="stroke:#2E4053;stroke-width:1;"/><line style="stroke:#2E4053;stroke-width:1;" x1="274.9014" x2="274.9014" y1="319.8047" y2="342.9531"/><polygon fill="#2E4053" points="270.9014,332.9531,274.9014,342.9531,278.9014,332.9531,274.9014,336.9531" style="stroke:#2E4053;stroke-width:1;"/><line style="stroke:#2E4053;stroke-width:1;" x1="1011.8999" x2="1011.8999" y1="317.3203" y2="343.6172"/><polygon fill="#2E4053" points="1007.8999,333.6172,1011.8999,343.6172,1015.8999,333.6172,1011.8999,337.6172" style="stroke:#2E4053;stroke-width:1;"/><line style="stroke:#2E4053;stroke-width:1;" x1="1011.8999" x2="1011.8999" y1="377.5859" y2="412.5859"/><polygon fill="#2E4053" points="1007.8999,402.5859,1011.8999,412.5859,1015.8999,402.5859,1011.8999,406.5859" style="stroke:#2E4053;stroke-width:1;"/><line style="stroke:#2E4053;stroke-width:1;" x1="1304.7075" x2="1304.7075" y1="209.3828" y2="229.3828"/><polygon fill="#2E4053" points="1300.7075,219.3828,1304.7075,229.3828,1308.7075,219.3828,1304.7075,223.3828" style="stroke:#2E4053;stroke-width:1;"/><line style="stroke:#2E4053;stroke-width:1;" x1="1304.7075" x2="1304.7075" y1="263.3516" y2="283.3516"/><polygon fill="#2E4053" points="1300.7075,273.3516,1304.7075,283.3516,1308.7075,273.3516,1304.7075,277.3516" style="stroke:#2E4053;stroke-width:1;"/><line style="stroke:#2E4053;stroke-width:1;" x1="1304.7075" x2="1304.7075" y1="317.3203" y2="340.4688"/><polygon fill="#2E4053" points="1300.7075,330.4688,1304.7075,340.4688,1308.7075,330.4688,1304.7075,334.4688" style="stroke:#2E4053;stroke-width:1;"/><line style="stroke:#2E4053;stroke-width:1;" x1="1304.7075" x2="1304.7075" y1="374.4375" y2="409.4375"/><polygon fill="#2E4053" points="1300.7075,399.4375,1304.7075,409.4375,1308.7075,399.4375,1304.7075,403.4375" style="stroke:#2E4053;stroke-width:1;"/><line style="stroke:#2E4053;stroke-width:1;" x1="1304.7075" x2="1304.7075" y1="443.4063" y2="466.5547"/><polygon fill="#2E4053" points="1300.7075,456.5547,1304.7075,466.5547,1308.7075,456.5547,1304.7075,460.5547" style="stroke:#2E4053;stroke-width:1;"/><line style="stroke:#2E4053;stroke-width:1;" x1="1304.7075" x2="1304.7075" y1="500.5234" y2="520.5234"/><polygon fill="#2E4053" points="1300.7075,510.5234,1304.7075,520.5234,1308.7075,510.5234,1304.7075,514.5234" style="stroke:#2E4053;stroke-width:1;"/><line style="stroke:#2E4053;stroke-width:1;" x1="274.9014" x2="274.9014" y1="155.4141" y2="285.8359"/><polygon fill="#2E4053" points="270.9014,275.8359,274.9014,285.8359,278.9014,275.8359,274.9014,279.8359" style="stroke:#2E4053;stroke-width:1;"/><line style="stroke:#2E4053;stroke-width:1;" x1="1011.8999" x2="1011.8999" y1="155.4141" y2="283.3516"/><polygon fill="#2E4053" points="1007.8999,273.3516,1011.8999,283.3516,1015.8999,273.3516,1011.8999,277.3516" style="stroke:#2E4053;stroke-width:1;"/><line style="stroke:#2E4053;stroke-width:1;" x1="1304.7075" x2="1304.7075" y1="155.4141" y2="175.4141"/><polygon fill="#2E4053" points="1300.7075,165.4141,1304.7075,175.4141,1308.7075,165.4141,1304.7075,169.4141" style="stroke:#2E4053;stroke-width:1;"/><line style="stroke:#1A5276;stroke-width:1;" x1="274.9014" x2="274.9014" y1="440.9219" y2="576.4922"/><line style="stroke:#1A5276;stroke-width:1;" x1="274.9014" x2="818.3362" y1="576.4922" y2="576.4922"/><polygon fill="#1A5276" points="808.3362,572.4922,818.3362,576.4922,808.3362,580.4922,812.3362,576.4922" style="stroke:#1A5276;stroke-width:1;"/><line style="stroke:#1A5276;stroke-width:1;" x1="1011.8999" x2="1011.8999" y1="446.5547" y2="576.4922"/><line style="stroke:#1A5276;stroke-width:1;" x1="1011.8999" x2="842.3362" y1="576.4922" y2="576.4922"/><polygon fill="#1A5276" points="852.3362,572.4922,842.3362,576.4922,852.3362,580.4922,848.3362,576.4922" style="stroke:#1A5276;stroke-width:1;"/><line style="stroke:#1A5276;stroke-width:1;" x1="1304.7075" x2="1304.7075" y1="554.4922" y2="576.4922"/><line style="stroke:#1A5276;stroke-width:1;" x1="1304.7075" x2="842.3362" y1="576.4922" y2="576.4922"/><polygon fill="#1A5276" points="852.3362,572.4922,842.3362,576.4922,852.3362,580.4922,848.3362,576.4922" style="stroke:#1A5276;stroke-width:1;"/><line style="stroke:#2E4053;stroke-width:1;" x1="830.3362" x2="830.3362" y1="126.2656" y2="149.4141"/><polygon fill="#2E4053" points="826.3362,139.4141,830.3362,149.4141,834.3362,139.4141,830.3362,143.4141" style="stroke:#2E4053;stroke-width:1;"/><line style="stroke:#2E4053;stroke-width:1;" x1="830.3362" x2="830.3362" y1="588.4922" y2="608.4922"/><polygon fill="#2E4053" points="826.3362,598.4922,830.3362,608.4922,834.3362,598.4922,830.3362,602.4922" style="stroke:#2E4053;stroke-width:1;"/><line style="stroke:#2E4053;stroke-width:1;" x1="660.1018" x2="660.1018" y1="730.4297" y2="750.4297"/><polygon fill="#2E4053" points="656.1018,740.4297,660.1018,750.4297,664.1018,740.4297,660.1018,744.4297" style="stroke:#2E4053;stroke-width:1;"/><line style="stroke:#2E4053;stroke-width:1;" x1="660.1018" x2="660.1018" y1="784.3984" y2="804.3984"/><polygon fill="#2E4053" points="656.1018,794.3984,660.1018,804.3984,664.1018,794.3984,660.1018,798.3984" style="stroke:#2E4053;stroke-width:1;"/><line style="stroke:#2E4053;stroke-width:1;" x1="660.1018" x2="660.1018" y1="838.3672" y2="858.3672"/><polygon fill="#2E4053" points="656.1018,848.3672,660.1018,858.3672,664.1018,848.3672,660.1018,852.3672" style="stroke:#2E4053;stroke-width:1;"/><line style="stroke:#2E4053;stroke-width:1;" x1="1000.5706" x2="1000.5706" y1="730.4297" y2="750.4297"/><polygon fill="#2E4053" points="996.5706,740.4297,1000.5706,750.4297,1004.5706,740.4297,1000.5706,744.4297" style="stroke:#2E4053;stroke-width:1;"/><line style="stroke:#2E4053;stroke-width:1;" x1="1000.5706" x2="1000.5706" y1="784.3984" y2="804.3984"/><polygon fill="#2E4053" points="996.5706,794.3984,1000.5706,804.3984,1004.5706,794.3984,1000.5706,798.3984" style="stroke:#2E4053;stroke-width:1;"/><line style="stroke:#2E4053;stroke-width:1;" x1="1000.5706" x2="1000.5706" y1="838.3672" y2="858.3672"/><polygon fill="#2E4053" points="996.5706,848.3672,1000.5706,858.3672,1004.5706,848.3672,1000.5706,852.3672" style="stroke:#2E4053;stroke-width:1;"/><line style="stroke:#2E4053;stroke-width:1;" x1="1000.5706" x2="1000.5706" y1="892.3359" y2="912.3359"/><polygon fill="#2E4053" points="996.5706,902.3359,1000.5706,912.3359,1004.5706,902.3359,1000.5706,906.3359" style="stroke:#2E4053;stroke-width:1;"/><line style="stroke:#2E4053;stroke-width:1;" x1="1000.5706" x2="1000.5706" y1="946.3047" y2="966.3047"/><polygon fill="#2E4053" points="996.5706,956.3047,1000.5706,966.3047,1004.5706,956.3047,1000.5706,960.3047" style="stroke:#2E4053;stroke-width:1;"/><line style="stroke:#2E4053;stroke-width:1;" x1="742.7151" x2="660.1018" y1="674.4609" y2="674.4609"/><line style="stroke:#2E4053;stroke-width:1;" x1="660.1018" x2="660.1018" y1="674.4609" y2="696.4609"/><polygon fill="#2E4053" points="656.1018,686.4609,660.1018,696.4609,664.1018,686.4609,660.1018,690.4609" style="stroke:#2E4053;stroke-width:1;"/><line style="stroke:#2E4053;stroke-width:1;" x1="917.9573" x2="1000.5706" y1="674.4609" y2="674.4609"/><line style="stroke:#2E4053;stroke-width:1;" x1="1000.5706" x2="1000.5706" y1="674.4609" y2="696.4609"/><polygon fill="#2E4053" points="996.5706,686.4609,1000.5706,696.4609,1004.5706,686.4609,1000.5706,690.4609" style="stroke:#2E4053;stroke-width:1;"/><line style="stroke:#2E4053;stroke-width:1;" x1="660.1018" x2="660.1018" y1="892.3359" y2="1018.2734"/><line style="stroke:#2E4053;stroke-width:1;" x1="660.1018" x2="818.3362" y1="1018.2734" y2="1018.2734"/><polygon fill="#2E4053" points="808.3362,1014.2734,818.3362,1018.2734,808.3362,1022.2734,812.3362,1018.2734" style="stroke:#2E4053;stroke-width:1;"/><line style="stroke:#2E4053;stroke-width:1;" x1="1000.5706" x2="1000.5706" y1="1000.2734" y2="1018.2734"/><line style="stroke:#2E4053;stroke-width:1;" x1="1000.5706" x2="842.3362" y1="1018.2734" y2="1018.2734"/><polygon fill="#2E4053" points="852.3362,1014.2734,842.3362,1018.2734,852.3362,1022.2734,848.3362,1018.2734" style="stroke:#2E4053;stroke-width:1;"/><line style="stroke:#2E4053;stroke-width:1;" x1="830.3362" x2="830.3362" y1="642.4609" y2="662.4609"/><polygon fill="#2E4053" points="826.3362,652.4609,830.3362,662.4609,834.3362,652.4609,830.3362,656.4609" style="stroke:#2E4053;stroke-width:1;"/><line style="stroke:#2E4053;stroke-width:1;" x1="830.3362" x2="830.3362" y1="1030.2734" y2="1050.2734"/><polygon fill="#2E4053" points="826.3362,1040.2734,830.3362,1050.2734,834.3362,1040.2734,830.3362,1044.2734" style="stroke:#2E4053;stroke-width:1;"/><line style="stroke:#2E4053;stroke-width:1;" x1="830.3362" x2="830.3362" y1="1084.2422" y2="1104.2422"/><polygon fill="#2E4053" points="826.3362,1094.2422,830.3362,1104.2422,834.3362,1094.2422,830.3362,1098.2422" style="stroke:#2E4053;stroke-width:1;"/><line style="stroke:#2E4053;stroke-width:1;" x1="830.3362" x2="830.3362" y1="1138.2109" y2="1158.2109"/><polygon fill="#2E4053" points="826.3362,1148.2109,830.3362,1158.2109,834.3362,1148.2109,830.3362,1152.2109" style="stroke:#2E4053;stroke-width:1;"/><?plantuml-src lLHHRnf747w_Np5ArGPBZHixTLfXon4Sa5Y5505MbCVbRZXMxEsUPkTCBh--iti7iHrRpLDu0J7VpdpppJVZTzfMYbG9GvNj2dArpLDd7C4la_X9_14no5ZVQMwMh8WxqFdupzSNRvu0ZOzvdeKC5Vqln56E1zJPuEByhxTF9df4VJoSN4o6Jo0dpXwOdqtUdlqzUWQpr5yHpixlHudS_bcw8NWlz_E0Dl7h967D1c5m0tFITofhOEwCbg-1LQRvYWIlOFo5qNhjx94QZBGg95-I-3239Ed_Mw6z1voxgguk4-iOWNInvGHW9JyA9CnXlnKmRn5gZoIHJ2hkVFm7ZobqvknfWZQ7a2L9DevsWks_HuQq9aBBi59h6BbIQNif8Rs1NgJjjPT4shC7RS6uJ1dmx4WL29dAjlZk91IpqFkC_aHUIjgfKpaegJRIlZAgWJG0SrYWhmtxa1-DH-XzTDsBaOEFZhVQ5l07_8DOmUqDZCkAcmYskTv4qg0A8HYetrZDMfaW_JII4jd7jj1Mqdx2zNGwEmbFese6DnphZDpU6Y7dOMfKgU3DwJcKBaSJUbiV7HUnei16asUWsluEGWvfhuLq-tv3heIr641KRtKuROcs2Wl11LQE6A8MSt85eVVG-pMowY-HlwEzG9LBkm_Rd6YRFxRJLDlTiRU38m2MKjr3AMN2RDX1AjuCarrcf2j-HEzX47och8SFgzaKhjGr62aHvzIVASwsSPWBPNTmkvXwiLeOr08B_09pnOnaM_02kIOB7uGJYdB2sr6mU4TS7aVO14FEMCnj7dKN0ND5elHA37nieXSLlmh-l0RPnwkrovlhJatn8uQD8PMn-Amh5z_BO6TOEfB4eVqIgP05w8-jMikklent3mvEVmd3cjd91YHX0Mx3S3qQpCJzhK-ugRuvlftWB0I2Z_kVb6QG-K6RjSq5QTZ8oqvpprHdGHadveQzvkq3jh_1n56f61QrmLRJUqPVCg4gW_PtMa7hyiuzdGuXVbYpO07P8X50d6LUhNGfg7RlKkFg7DAjulVpLQGUMnsBrEGXt1-nvM1-8wlO2AUqbeqlnM3CKlmxMXrU-fH1NVvy8Rxn_M4Lua59-ajrXo0h5lRmSEp2uco5LQZIdhbulQ2tRhhxAARh7oxRY-ExL1enoFWYDCsrS9Q3xgh_0000?></g></svg>